<?xml version="1.0" standalone="no"?>
<!DOCTYPE svg PUBLIC "-//W3C//DTD SVG 20010904//EN"
 "http://www.w3.org/TR/2001/REC-SVG-20010904/DTD/svg10.dtd">
<svg version="1.0" xmlns="http://www.w3.org/2000/svg"
 width="700.000000pt" height="700.000000pt" viewBox="0 0 700.000000 700.000000"
 preserveAspectRatio="xMidYMid meet">
<metadata>
Created by potrace 1.14, written by Peter Selinger 2001-2017
</metadata>
<g transform="translate(0.000000,700.000000) scale(0.100000,-0.100000)"
fill="#000000" stroke="none">
<path d="M3277 6244 c-1 -1 -72 -4 -157 -8 -85 -3 -164 -8 -175 -10 -11 -2
-58 -7 -105 -11 -47 -4 -87 -8 -90 -10 -3 -2 -34 -6 -70 -10 -36 -4 -67 -8
-70 -10 -3 -2 -30 -6 -60 -10 -118 -14 -425 -83 -541 -121 -25 -8 -54 -16 -65
-18 -68 -14 -313 -111 -464 -184 -89 -43 -259 -138 -270 -151 -3 -4 -32 -24
-64 -46 -55 -37 -236 -207 -282 -265 -30 -39 -78 -119 -106 -180 -54 -115 -58
-159 -53 -595 2 -220 6 -416 9 -435 3 -19 7 -63 10 -98 9 -97 40 -341 51 -392
7 -33 26 -131 29 -150 6 -41 43 -190 78 -315 21 -77 41 -149 43 -160 3 -11 9
-31 14 -45 5 -14 26 -72 46 -130 21 -58 43 -118 50 -135 7 -16 23 -55 35 -85
66 -162 220 -468 258 -512 8 -10 12 -18 9 -18 -7 0 170 -270 183 -280 3 -3 17
-21 30 -40 72 -105 251 -304 392 -436 58 -54 213 -180 262 -213 21 -14 49 -33
62 -41 143 -96 330 -191 479 -245 90 -33 251 -79 310 -90 17 -2 41 -7 55 -10
101 -21 458 -26 600 -9 274 34 571 138 821 290 63 37 259 172 269 183 3 3 34
31 70 60 70 59 288 275 333 330 l27 33 243 4 c133 1 256 5 272 7 17 3 64 8
105 11 41 4 82 9 90 11 8 3 31 7 50 9 63 8 243 47 332 72 213 59 436 157 590
261 l88 58 0 731 0 732 -61 53 c-119 104 -405 299 -438 299 -6 0 -11 5 -11 10
0 6 -5 10 -10 10 -6 0 -61 24 -123 54 -62 30 -129 61 -149 69 -31 13 -36 20
-33 39 16 81 26 590 15 792 -15 287 -127 495 -383 704 -274 226 -720 420
-1207 526 -63 14 -128 28 -145 30 -16 3 -41 8 -55 11 -14 3 -43 7 -65 10 -22
3 -67 10 -100 15 -64 10 -104 15 -200 25 -33 4 -76 8 -95 10 -106 12 -652 27
-663 19z m2988 -2505 c150 -93 336 -256 426 -375 129 -169 188 -320 193 -494
9 -292 -174 -549 -524 -738 -156 -85 -369 -155 -590 -197 -14 -3 -36 -7 -50
-9 -28 -6 -69 -11 -145 -20 -116 -13 -165 -16 -165 -10 0 4 29 51 65 105 36
54 65 100 65 103 0 3 13 25 30 49 65 97 231 440 300 622 75 198 177 530 196
644 3 14 9 42 14 61 5 19 12 51 15 70 3 19 8 42 10 50 2 8 6 31 9 50 3 19 10
62 16 95 5 33 10 61 10 63 0 3 65 -33 125 -69z"/>
</g>
</svg>
